<svg xmlns="http://www.w3.org/2000/svg" viewBox="0 0 512 512">
  <rect width="512" height="512" rx="112" fill="#1F4FD1"/>
  <g transform="translate(256 270) rotate(-4) translate(-150 -160)">
    <rect x="10" y="18" width="300" height="300" rx="26" fill="#0F2C80" opacity=".55"/>
    <rect x="0" y="0" width="300" height="300" rx="26" fill="#FFFEFB"/>
    <path d="M26 0h248a26 26 0 0 1 26 26v48H0V26A26 26 0 0 1 26 0Z" fill="#173A9C"/>
    <rect x="62" y="-26" width="22" height="58" rx="11" fill="#E4E7EE"/>
    <rect x="216" y="-26" width="22" height="58" rx="11" fill="#E4E7EE"/>
    <g fill="#E2E9FB">
      <rect x="34" y="106" width="46" height="46" rx="10"/>
      <rect x="94" y="106" width="46" height="46" rx="10"/>
      <rect x="154" y="106" width="46" height="46" rx="10"/>
      <rect x="214" y="106" width="46" height="46" rx="10"/>
      <rect x="34" y="166" width="46" height="46" rx="10"/>
      <rect x="94" y="166" width="46" height="46" rx="10"/>
      <rect x="154" y="166" width="46" height="46" rx="10"/>
      <rect x="34" y="226" width="46" height="46" rx="10"/>
      <rect x="94" y="226" width="46" height="46" rx="10"/>
    </g>
    <rect x="214" y="166" width="46" height="46" rx="10" fill="#FBE4E7"/>
    <circle cx="237" cy="200" r="5" fill="#D3263A"/>
    <rect x="148" y="220" width="58" height="58" rx="12" fill="#1F4FD1"/>
    <path d="M163 250l10 10 20-22" fill="none" stroke="#fff" stroke-width="9" stroke-linecap="round" stroke-linejoin="round"/>
  </g>
</svg>
